<?xml version="1.0" standalone="no"?><!DOCTYPE svg PUBLIC "-//W3C//DTD SVG 1.1//EN" "http://www.w3.org/Graphics/SVG/1.1/DTD/svg11.dtd"><svg class="icon" width="200px" height="200.00px" viewBox="0 0 1024 1024" version="1.1" xmlns="http://www.w3.org/2000/svg"><path fill="#1296db" d="M792.064 446.464c-79.872 0-281.6 8.704-350.208-18.432-74.752-29.696-112.64-94.208-112.64-169.984 0-68.608 34.304-133.632 97.28-185.856C194.56 115.712 21.504 272.384 21.504 482.304c0 126.976 49.152 212.992 122.88 287.232H12.288s89.088 155.136 508.928 155.136H757.76c249.856 0 260.096-33.28 260.096-208.896-0.512-135.168-38.912-269.312-225.792-269.312z m-49.664 312.832h-56.32c-19.968 0-27.648-14.848-17.92-31.232l28.16-48.128c9.728-16.896 26.112-16.896 35.84-0.512l28.16 48.64c9.728 16.896 2.048 31.232-17.92 31.232zM646.656 374.272h35.84v80.384h-35.84V374.272z m253.44-179.2c-22.528-43.008-67.072-72.192-118.784-72.192-49.664 0-93.184 27.136-116.224 67.072-23.04-39.936-66.56-67.072-116.224-67.072-51.712 0-96.768 29.184-118.784 72.192-2.048 3.072-3.072 6.144-3.072 9.728 0 9.728 8.192 17.92 17.92 17.92 6.656 0 12.8-3.584 15.872-9.728 15.872-32.256 49.152-54.272 88.064-54.272 54.272 0 98.304 44.032 98.304 98.304v80.384h35.84V257.024c0-54.272 44.032-98.304 98.304-98.304 38.4 0 71.68 22.016 88.064 54.272 3.072 6.144 9.216 9.728 15.872 9.728 9.728 0 17.92-8.192 17.92-17.92-0.512-3.584-1.536-7.168-3.072-9.728z" /></svg>